<svg width="28" height="28" viewBox="0 0 28 28" fill="none" xmlns="http://www.w3.org/2000/svg">
<circle cx="14" cy="14" r="14" fill="#FBA63C"/>
<path d="M15.3611 7.88905C15.2951 7.56567 15.0106 7.3335 14.6806 7.3335H9.69444C9.31091 7.3335 9 7.64441 9 8.02794V18.4446C9 18.8281 9.31091 19.1391 9.69444 19.1391C10.078 19.1391 10.3889 18.8281 10.3889 18.4446V14.2779H14.2778L14.4444 15.1113C14.5075 15.4365 14.7938 15.6702 15.125 15.6668H18.7222C19.1058 15.6668 19.4167 15.3559 19.4167 14.9724V9.41683C19.4167 9.0333 19.1058 8.72239 18.7222 8.72239H15.5278L15.3611 7.88905Z" fill="white"/>
</svg>
