<svg width="25" height="24" viewBox="0 0 25 24" fill="none" xmlns="http://www.w3.org/2000/svg">
<path d="M12.9424 2V1V2ZM6.94238 8H5.94238H6.94238ZM3.94238 17L3.38768 16.1679C3.02103 16.4124 2.85759 16.868 2.98529 17.2898C3.11299 17.7115 3.50172 18 3.94238 18V17ZM21.9424 17V18C22.3831 18 22.7718 17.7115 22.8995 17.2898C23.0272 16.868 22.8637 16.4124 22.4971 16.1679L21.9424 17ZM15.5374 21.5018C15.8145 21.024 15.6519 20.4121 15.1742 20.135C14.6964 19.8579 14.0845 20.0205 13.8074 20.4982L15.5374 21.5018ZM12.0774 20.4982C11.8003 20.0205 11.1884 19.8579 10.7106 20.135C10.2329 20.4121 10.0703 21.024 10.3474 21.5018L12.0774 20.4982ZM19.9424 8C19.9424 6.14349 19.2049 4.36301 17.8921 3.05025L16.4779 4.46447C17.4156 5.40215 17.9424 6.67392 17.9424 8H19.9424ZM17.8921 3.05025C16.5794 1.7375 14.7989 1 12.9424 1V3C14.2685 3 15.5402 3.52678 16.4779 4.46447L17.8921 3.05025ZM12.9424 1C11.0859 1 9.30539 1.7375 7.99264 3.05025L9.40685 4.46447C10.3445 3.52678 11.6163 3 12.9424 3V1ZM7.99264 3.05025C6.67988 4.36301 5.94238 6.14348 5.94238 8H7.94238C7.94238 6.67392 8.46917 5.40215 9.40685 4.46447L7.99264 3.05025ZM5.94238 8C5.94238 11.3527 5.22532 13.4346 4.56449 14.6461C4.23269 15.2544 3.90961 15.6535 3.68518 15.8904C3.5727 16.0091 3.48432 16.0878 3.4311 16.1322C3.40448 16.1544 3.38663 16.168 3.37893 16.1737C3.37508 16.1766 3.37377 16.1775 3.37517 16.1765C3.37587 16.176 3.37725 16.175 3.37933 16.1736C3.38036 16.1729 3.38158 16.1721 3.38297 16.1711C3.38367 16.1706 3.38441 16.1701 3.38519 16.1696C3.38558 16.1694 3.38621 16.1689 3.3864 16.1688C3.38704 16.1684 3.38768 16.1679 3.94238 17C4.49708 17.8321 4.49775 17.8316 4.49843 17.8312C4.49867 17.831 4.49936 17.8305 4.49985 17.8302C4.50081 17.8296 4.50183 17.8289 4.50289 17.8282C4.50501 17.8267 4.50731 17.8252 4.50979 17.8235C4.51475 17.8201 4.52043 17.8161 4.52681 17.8116C4.53956 17.8026 4.5551 17.7915 4.57322 17.778C4.60946 17.751 4.65606 17.7148 4.71147 17.6686C4.82232 17.5762 4.96831 17.444 5.13709 17.2659C5.47516 16.909 5.90207 16.3706 6.32028 15.6039C7.15945 14.0654 7.94238 11.6473 7.94238 8H5.94238ZM3.94238 18H21.9424V16H3.94238V18ZM21.9424 17C22.4971 16.1679 22.4977 16.1684 22.4984 16.1688C22.4986 16.1689 22.4992 16.1694 22.4996 16.1696C22.5004 16.1701 22.5011 16.1706 22.5018 16.1711C22.5032 16.1721 22.5044 16.1729 22.5054 16.1736C22.5075 16.175 22.5089 16.176 22.5096 16.1765C22.511 16.1775 22.5097 16.1766 22.5058 16.1737C22.4981 16.168 22.4803 16.1544 22.4537 16.1322C22.4004 16.0878 22.3121 16.0091 22.1996 15.8904C21.9752 15.6535 21.6521 15.2544 21.3203 14.6461C20.6595 13.4346 19.9424 11.3527 19.9424 8H17.9424C17.9424 11.6473 18.7253 14.0654 19.5645 15.6039C19.9827 16.3706 20.4096 16.909 20.7477 17.2659C20.9165 17.444 21.0624 17.5762 21.1733 17.6686C21.2287 17.7148 21.2753 17.751 21.3115 17.778C21.3297 17.7915 21.3452 17.8026 21.358 17.8116C21.3643 17.8161 21.37 17.8201 21.375 17.8235C21.3775 17.8252 21.3798 17.8267 21.3819 17.8282C21.3829 17.8289 21.384 17.8296 21.3849 17.8302C21.3854 17.8305 21.3861 17.831 21.3863 17.8312C21.387 17.8316 21.3877 17.8321 21.9424 17ZM13.8074 20.4982C13.7195 20.6498 13.5933 20.7756 13.4415 20.863L14.4397 22.5961C14.8952 22.3337 15.2737 21.9564 15.5374 21.5018L13.8074 20.4982ZM13.4415 20.863C13.2897 20.9504 13.1176 20.9965 12.9424 20.9965V22.9965C13.468 22.9965 13.9843 22.8584 14.4397 22.5961L13.4415 20.863ZM12.9424 20.9965C12.7672 20.9965 12.5951 20.9504 12.4433 20.863L11.4451 22.5961C11.9005 22.8584 12.4168 22.9965 12.9424 22.9965V20.9965ZM12.4433 20.863C12.2915 20.7756 12.1653 20.6498 12.0774 20.4982L10.3474 21.5018C10.6111 21.9564 10.9896 22.3337 11.4451 22.5961L12.4433 20.863Z" fill="#9E9E9E"/>
</svg>
